<?xml version="1.0" encoding="UTF-8" standalone="no"?><!-- Generator: Gravit.io --><svg xmlns="http://www.w3.org/2000/svg" xmlns:xlink="http://www.w3.org/1999/xlink" style="isolation:isolate" viewBox="0 0 150 150" width="150pt" height="150pt"><defs><clipPath id="_clipPath_Wqob29gtAoDxWCG2qDrU8bsboqAmYQVR"><rect width="150" height="150"/></clipPath></defs><g clip-path="url(#_clipPath_Wqob29gtAoDxWCG2qDrU8bsboqAmYQVR)"><rect x="3" y="11" width="144" height="150" transform="matrix(1,0,0,1,0,0)" fill="none"/><path d=" M 97.796 84.338 L 90.106 88.963 L 77.746 66.663 L 85.436 62.038 L 94.196 77.843 L 94.196 77.843 L 102.094 73.093 L 105.694 79.588 L 97.796 84.338 Z " fill-rule="evenodd" fill="rgb(0,125,184)"/><path d=" M 99.652 66.663 L 112.012 88.963 L 119.702 84.338 L 116.102 77.843 L 107.342 62.038 L 99.652 66.663 Z  M 119.702 84.338 L 127.6 79.588 L 124 73.093 L 116.102 77.843 L 116.102 77.843 L 119.702 84.338 Z " fill-rule="evenodd" fill="rgb(0,125,184)"/><path d=" M 23.556 67.451 L 37.736 88.546 C 38.695 87.846 41.321 85.931 45.209 83.095 L 31.029 62 L 23.556 67.451 Z " fill="rgb(0,125,184)"/><path d=" M 29.831 62.84 L 33.619 60.077 Q 34.49 59.412 35.551 58.973 C 36.469 58.593 37.707 58.355 38.295 58.193 C 40.05 57.707 41.219 57.851 41.65 57.881 C 43.893 58.038 46.016 58.532 47.429 59.405 C 49.681 60.797 50.927 62.898 51.144 63.164 C 51.362 63.431 52.672 65.711 53.024 67.287 C 53.371 68.844 53.263 70.489 53.095 71.813 C 52.935 73.08 52.491 74.677 51.818 76.101 Q 50.907 78.031 48.196 80.879 L 44.209 83.788 L 29.831 62.84 Z " fill="rgb(0,125,184)"/><path d=" M 33.96 68.979 L 39.88 77.785 L 42.238 76.065 Q 43.442 75.239 43.87 74.569 C 44.277 73.934 44.464 73.218 44.558 72.541 C 44.663 71.789 44.526 71.192 44.381 70.535 C 44.237 69.879 43.79 69.392 43.476 68.753 Q 42.73 67.68 42.178 67.258 Q 41.529 66.761 40.083 66.345 Q 38.961 66.263 38.364 66.378 Q 37.594 66.525 36.319 67.259 L 33.96 68.979 Z " fill="rgb(244,246,247)"/><path d=" M 54.64 59 L 54.64 87.519 L 62.033 87.519 L 62.033 59 L 54.64 59 Z " fill="rgb(0,125,184)"/><rect x="61.759" y="80.5" width="15.506" height="7.019" transform="matrix(1,0,0,1,0,0)" fill="rgb(0,125,184)"/><rect x="61.759" y="69.75" width="15.506" height="7.019" transform="matrix(1,0,0,1,0,0)" fill="rgb(0,125,184)"/><rect x="61.759" y="59" width="15.506" height="7.019" transform="matrix(1,0,0,1,0,0)" fill="rgb(0,125,184)"/><mask id="_mask_TcRSKBEOrA8COVa3CcT8cSr00s5j3eTQ"><ellipse vector-effect="non-scaling-stroke" cx="75.50000000000006" cy="73.50000000000009" rx="59.50000000000001" ry="52.5" fill="white" stroke="none"/></mask><ellipse vector-effect="non-scaling-stroke" cx="75.50000000000006" cy="73.50000000000009" rx="59.50000000000001" ry="52.5" fill="none"/><ellipse vector-effect="non-scaling-stroke" cx="75.50000000000006" cy="73.50000000000009" rx="59.50000000000001" ry="52.5" fill="none" mask="url(#_mask_TcRSKBEOrA8COVa3CcT8cSr00s5j3eTQ)" stroke-width="12" stroke="rgb(0,125,184)" stroke-linejoin="miter" stroke-linecap="square" stroke-miterlimit="3"/></g></svg>